<mxfile host="Electron" modified="2023-05-08T04:01:00.491Z" agent="Mozilla/5.0 (X11; Linux x86_64) AppleWebKit/537.36 (KHTML, like Gecko) draw.io/21.1.2 Chrome/106.0.5249.199 Electron/21.4.3 Safari/537.36" etag="rczXx4sxngmDW5QIx3uj" version="21.1.2" type="device" pages="2">
  <diagram name="Arq detallada" id="Page-1">
    <mxGraphModel dx="1430" dy="1227" grid="0" gridSize="1" guides="1" tooltips="1" connect="1" arrows="1" fold="1" page="0" pageScale="1" pageWidth="1169" pageHeight="827" math="0" shadow="0">
      <root>
        <mxCell id="0" />
        <mxCell id="1" value="Conector" parent="0" />
        <mxCell id="R7P3c3xCqw33GA_JSuXN-46" value="Nodo de medición GB005" style="rounded=1;whiteSpace=wrap;html=1;strokeColor=default;strokeWidth=2;fontSize=14;fillColor=none;verticalAlign=top;arcSize=2;fontStyle=1;dashed=1;dashPattern=1 1;" parent="1" vertex="1">
          <mxGeometry x="267" y="57" width="296" height="154" as="geometry" />
        </mxCell>
        <mxCell id="H1eg-GXUXW613Ig_QmVM-27" value="Entorno de desarrollo y pruebas" style="rounded=1;whiteSpace=wrap;html=1;strokeColor=default;strokeWidth=2;fontSize=14;fillColor=none;verticalAlign=top;arcSize=2;fontStyle=1;dashed=1;dashPattern=1 1;" parent="1" vertex="1">
          <mxGeometry x="714" y="-45" width="383" height="326" as="geometry" />
        </mxCell>
        <mxCell id="uNH9szOgE4-swG8XMWnX-37" value="&lt;span style=&quot;font-size: 12px;&quot;&gt;Sensores&lt;/span&gt;" style="rounded=1;whiteSpace=wrap;html=1;fontSize=18;strokeWidth=2;fillColor=#FFFFFF;verticalAlign=middle;labelBackgroundColor=none;arcSize=9;fontStyle=0;horizontal=1;glass=0;shadow=0;strokeColor=#5DAD85;" parent="1" vertex="1">
          <mxGeometry x="284" y="158" width="110" height="40" as="geometry" />
        </mxCell>
        <mxCell id="WayYLBnEI-mGi8pWYxDk-36" value="&lt;span style=&quot;font-size: 12px;&quot;&gt;Microcontrolador&lt;/span&gt;" style="rounded=1;whiteSpace=wrap;html=1;fontSize=12;strokeWidth=2;fillColor=none;verticalAlign=middle;labelBackgroundColor=none;arcSize=9;fontStyle=0;glass=0;shadow=0;" parent="1" vertex="1">
          <mxGeometry x="435" y="87" width="110" height="40" as="geometry" />
        </mxCell>
        <mxCell id="HH52LOLydAQwC-f6iWho-23" value="&lt;div style=&quot;font-size: 12px;&quot;&gt;&lt;p style=&quot;margin: 0px; text-indent: 0px; direction: ltr; font-size: 12px;&quot;&gt;&lt;font style=&quot;font-size: 12px; direction: ltr; letter-spacing: 0px; line-height: 1; opacity: 1;&quot;&gt;Alimentación&lt;/font&gt;&lt;/p&gt;&lt;/div&gt;" style="rounded=1;whiteSpace=wrap;html=1;fontSize=18;strokeWidth=2;fillColor=none;labelBackgroundColor=none;fontStyle=0;glass=0;shadow=0;arcSize=9;strokeColor=#FF9999;" parent="1" vertex="1">
          <mxGeometry x="283.9980092592593" y="87.00395737327182" width="110" height="40" as="geometry" />
        </mxCell>
        <mxCell id="YVJcuVKcc6d1Ne9PKlnW-23" style="orthogonalLoop=1;jettySize=auto;html=1;entryX=1;entryY=0.5;entryDx=0;entryDy=0;endArrow=classic;endFill=1;strokeWidth=1;rounded=1;elbow=vertical;startArrow=classic;startFill=1;exitX=0.005;exitY=0.706;exitDx=0;exitDy=0;exitPerimeter=0;" parent="1" source="uNH9szOgE4-swG8XMWnX-39" target="WayYLBnEI-mGi8pWYxDk-36" edge="1">
          <mxGeometry relative="1" as="geometry">
            <mxPoint x="467.18056000000024" y="124.78320000000008" as="sourcePoint" />
            <mxPoint x="726.1598611111112" y="201.14717741935488" as="targetPoint" />
          </mxGeometry>
        </mxCell>
        <mxCell id="21" style="vsdxID=1017;edgeStyle=orthogonalEdgeStyle;startArrow=none;endArrow=classic;startSize=5;endSize=7;strokeColor=#000000;spacingTop=0;spacingBottom=0;spacingLeft=0;spacingRight=0;verticalAlign=middle;html=1;labelBackgroundColor=#ffffff;rounded=1;entryX=0;entryY=0.5;entryDx=0;entryDy=0;fontFamily=Helvetica;strokeWidth=1;endFill=1;jumpSize=3;exitX=1;exitY=0.5;exitDx=0;exitDy=0;fontSize=11;" parent="1" source="uNH9szOgE4-swG8XMWnX-37" target="WayYLBnEI-mGi8pWYxDk-36" edge="1">
          <mxGeometry relative="1" as="geometry">
            <mxPoint as="offset" />
            <Array as="points">
              <mxPoint x="412" y="178" />
              <mxPoint x="412" y="107" />
            </Array>
            <mxPoint x="459.11800925925945" y="168.14717741935488" as="targetPoint" />
            <mxPoint x="348.80231259340826" y="168.12941260651496" as="sourcePoint" />
          </mxGeometry>
        </mxCell>
        <mxCell id="C9xIFXiDPNSBoshCQ-rF-23" value="&lt;div style=&quot;font-size: 12px;&quot;&gt;&lt;p style=&quot;margin: 0px; text-indent: 0px; direction: ltr; font-size: 12px;&quot;&gt;Salidas&lt;/p&gt;&lt;/div&gt;" style="rounded=1;whiteSpace=wrap;html=1;fontSize=18;strokeWidth=2;fillColor=none;labelBackgroundColor=none;fontStyle=0;glass=0;shadow=0;arcSize=9;strokeColor=#7EA6E0;verticalAlign=middle;" parent="1" vertex="1">
          <mxGeometry x="435" y="158.00395737327182" width="110" height="40" as="geometry" />
        </mxCell>
        <mxCell id="C9xIFXiDPNSBoshCQ-rF-24" style="edgeStyle=orthogonalEdgeStyle;rounded=1;orthogonalLoop=1;jettySize=auto;html=1;exitX=0.5;exitY=1;exitDx=0;exitDy=0;labelBackgroundColor=#ffffff;strokeColor=#000000;endSize=7;strokeWidth=1;endFill=1;startArrow=none;startSize=5;spacingTop=0;spacingBottom=0;spacingLeft=0;spacingRight=0;fontSize=11;" parent="1" source="WayYLBnEI-mGi8pWYxDk-36" target="C9xIFXiDPNSBoshCQ-rF-23" edge="1">
          <mxGeometry relative="1" as="geometry">
            <mxPoint x="459.11800925925945" y="429.89553571428564" as="sourcePoint" />
          </mxGeometry>
        </mxCell>
        <mxCell id="R7P3c3xCqw33GA_JSuXN-39" value="" style="edgeStyle=elbowEdgeStyle;rounded=1;orthogonalLoop=1;jettySize=auto;html=1;strokeWidth=1;fontSize=12;startArrow=classic;startFill=1;" parent="1" source="C9xIFXiDPNSBoshCQ-rF-37" target="R7P3c3xCqw33GA_JSuXN-26" edge="1">
          <mxGeometry relative="1" as="geometry">
            <mxPoint x="752" y="187" as="sourcePoint" />
            <mxPoint x="752" y="132.70999999999992" as="targetPoint" />
            <Array as="points">
              <mxPoint x="752" y="155" />
            </Array>
          </mxGeometry>
        </mxCell>
        <mxCell id="R7P3c3xCqw33GA_JSuXN-40" value="" style="edgeStyle=orthogonalEdgeStyle;rounded=0;orthogonalLoop=1;jettySize=auto;html=1;strokeWidth=1;fontSize=12;elbow=vertical;entryX=-0.008;entryY=0.659;entryDx=0;entryDy=0;entryPerimeter=0;startArrow=classic;startFill=1;" parent="1" target="R7P3c3xCqw33GA_JSuXN-31" edge="1">
          <mxGeometry relative="1" as="geometry">
            <mxPoint x="790" y="207" as="sourcePoint" />
            <mxPoint x="855.6656" y="207.135" as="targetPoint" />
            <Array as="points">
              <mxPoint x="856" y="207" />
            </Array>
          </mxGeometry>
        </mxCell>
        <mxCell id="R7P3c3xCqw33GA_JSuXN-41" style="edgeStyle=elbowEdgeStyle;rounded=1;orthogonalLoop=1;jettySize=auto;html=1;strokeWidth=1;fontSize=12;entryX=0.004;entryY=0.66;entryDx=0;entryDy=0;entryPerimeter=0;startArrow=classic;startFill=1;" parent="1" source="C9xIFXiDPNSBoshCQ-rF-37" target="R7P3c3xCqw33GA_JSuXN-23" edge="1">
          <mxGeometry relative="1" as="geometry">
            <Array as="points">
              <mxPoint x="834" y="148" />
            </Array>
          </mxGeometry>
        </mxCell>
        <mxCell id="C9xIFXiDPNSBoshCQ-rF-37" value="Estación de &lt;br&gt;configuración&lt;br&gt;y desarrollo" style="sketch=0;aspect=fixed;pointerEvents=1;shadow=0;dashed=0;html=1;strokeColor=none;labelPosition=center;verticalLabelPosition=bottom;verticalAlign=top;align=center;fillColor=#515151;shape=mxgraph.mscae.enterprise.workstation_client" parent="1" vertex="1">
          <mxGeometry x="740" y="171" width="50" height="50" as="geometry" />
        </mxCell>
        <mxCell id="C9xIFXiDPNSBoshCQ-rF-39" value="Servidor de &lt;br&gt;autenticación" style="sketch=0;aspect=fixed;pointerEvents=1;shadow=0;dashed=0;html=1;strokeColor=none;labelPosition=center;verticalLabelPosition=bottom;verticalAlign=top;align=center;fillColor=#515151;shape=stencil(zVhNb+MgEP01PsYy4M/jyu0ee+lhz8SlibUELOxt2n+/2JikkNgLyJFWihQzY96bB8wMSYTq/og7EsEE9x1phgg9RRB+YNHiPZVmKD1HZayqOFcGhk9E2Z74CbdMmmrOBsEpJUK90svRb3Ju34Z5dsuORLSD8p6VrYBxDkYLeo6SH9I+flDdcMZkKC1nveH55pfwkncwYnlR2J2kOZFBBjJZE2X9nEdxpsZfhjeCP32YXgOYQBDTLxcmU5Hm9WR6dtKU59kmbC+OdDZbAsPonNbxgn6lC9u1Vxd1wOKqqjAu/yOyIArV0rKUe6h+54IcBP/D3u6G1+Ex028c2n3iH2Qpnmthua9dY9CWLWKkcekCgUUjHygWB7KTz7t3ig8GnJjR54Mnvoxhfyak+zYJGKucxmge7/Bn2+8EH/C4knfT1F9wijS+D8ZjFZcekh23yBJdWqKzLF5NFG/dpam7vK/bzKfrVjjozpziNWUjpBdrBikyzegDU8TgAShlEq+W4QVJW4DAUs/SMKv9x1HPBhhVQELDzDrbQSBQF08NsnUpzM0EyV0SBELn9HCt/g3lPfnnW2afsXcJVOv3lYUaBKxDtxVMGtL3bjQ5oqyv39T8F3q47P0tpepGvwIwvtRwyuUvgER9T/FFEDVNs2/2a0F63h9SszjmYOOeAGKrK1wM6/0wu2yxw8F3jdrafmgXjeK/kF4Aj5YYduOTxT8Pgnm4+GtSuoh32rCHpes09eYyP1nVXwGT4S8=);spacing=-4;resizeWidth=0;" parent="1" vertex="1">
          <mxGeometry x="1012" y="171" width="37" height="51.39" as="geometry" />
        </mxCell>
        <mxCell id="R7P3c3xCqw33GA_JSuXN-22" value="&lt;span style=&quot;border-color: var(--border-color); color: rgb(51, 51, 51);&quot;&gt;Base de datos&lt;/span&gt;&lt;br style=&quot;border-color: var(--border-color); color: rgb(51, 51, 51);&quot;&gt;&lt;span style=&quot;border-color: var(--border-color); color: rgb(51, 51, 51);&quot;&gt;de tiempo real&lt;/span&gt;" style="sketch=0;shadow=0;dashed=0;html=1;strokeColor=none;fillColor=#505050;labelPosition=center;verticalLabelPosition=bottom;verticalAlign=bottom;outlineConnect=0;align=left;shape=mxgraph.office.databases.database_server_ghosted;strokeWidth=1;fontSize=12;movable=1;resizable=1;rotatable=1;deletable=1;editable=1;connectable=1;spacing=0;horizontal=1;spacingLeft=47;spacingTop=0;spacingBottom=56;" parent="1" vertex="1">
          <mxGeometry x="856" y="-14" width="43" height="57" as="geometry" />
        </mxCell>
        <mxCell id="R7P3c3xCqw33GA_JSuXN-38" value="" style="edgeStyle=orthogonalEdgeStyle;rounded=0;orthogonalLoop=1;jettySize=auto;html=1;strokeWidth=1;fontSize=12;elbow=vertical;startArrow=classic;startFill=1;entryX=0.302;entryY=0.93;entryDx=0;entryDy=0;entryPerimeter=0;" parent="1" source="R7P3c3xCqw33GA_JSuXN-23" target="R7P3c3xCqw33GA_JSuXN-22" edge="1">
          <mxGeometry relative="1" as="geometry">
            <Array as="points">
              <mxPoint x="869" y="64" />
              <mxPoint x="869" y="64" />
            </Array>
          </mxGeometry>
        </mxCell>
        <mxCell id="R7P3c3xCqw33GA_JSuXN-45" style="rounded=0;orthogonalLoop=1;jettySize=auto;html=1;strokeWidth=1;fontSize=14;fontColor=default;startArrow=none;startFill=0;elbow=vertical;exitX=0.572;exitY=0.23;exitDx=0;exitDy=0;exitPerimeter=0;entryX=0.077;entryY=0.497;entryDx=0;entryDy=0;entryPerimeter=0;" parent="1" source="R7P3c3xCqw33GA_JSuXN-23" target="R7P3c3xCqw33GA_JSuXN-32" edge="1">
          <mxGeometry relative="1" as="geometry">
            <mxPoint x="902.0000000000005" y="105.1935483870966" as="sourcePoint" />
            <mxPoint x="993" y="106.0322580645161" as="targetPoint" />
          </mxGeometry>
        </mxCell>
        <mxCell id="R7P3c3xCqw33GA_JSuXN-23" value="Servidor de&lt;br style=&quot;border-color: var(--border-color);&quot;&gt;aplicación" style="sketch=0;pointerEvents=1;shadow=0;dashed=0;html=1;strokeColor=none;fillColor=#505050;labelPosition=center;verticalLabelPosition=bottom;verticalAlign=bottom;outlineConnect=0;align=left;shape=mxgraph.office.servers.application_server_ghosted;strokeWidth=1;fontSize=12;spacing=0;spacingLeft=50;spacingBottom=52;" parent="1" vertex="1">
          <mxGeometry x="856" y="78.23" width="46" height="56" as="geometry" />
        </mxCell>
        <mxCell id="R7P3c3xCqw33GA_JSuXN-35" value="" style="edgeStyle=orthogonalEdgeStyle;rounded=0;orthogonalLoop=1;jettySize=auto;html=1;strokeWidth=1;fontSize=12;elbow=vertical;startArrow=none;startFill=0;exitX=0.671;exitY=0.21;exitDx=0;exitDy=0;exitPerimeter=0;" parent="1" source="R7P3c3xCqw33GA_JSuXN-26" edge="1">
          <mxGeometry relative="1" as="geometry">
            <mxPoint x="780.78" y="91.2790697674418" as="sourcePoint" />
            <mxPoint x="856" y="91.18604651162786" as="targetPoint" />
            <Array as="points">
              <mxPoint x="856" y="91" />
            </Array>
          </mxGeometry>
        </mxCell>
        <mxCell id="R7P3c3xCqw33GA_JSuXN-26" value="Servidor &lt;br&gt;de E/S" style="sketch=0;pointerEvents=1;shadow=0;dashed=0;html=1;strokeColor=none;fillColor=#505050;labelPosition=center;verticalLabelPosition=bottom;verticalAlign=bottom;outlineConnect=0;align=left;shape=stencil(tZdRb9sgEMc/jV8R3GE7fqyyTXvfJ3AIW6y5JsJpmnz7YeOkA9rUuTpSpIg7+8f9j+PAGa77Xb3XGfC632t1yPBbBnCsbVNvWmcG59l5Yw4s94auftbe9vO8sc3WmX5pe9TWu/uDNX/1a7M9TG823U7b5uC9r94m+TDE7xl/csbhh2tlus7F0JiuH20/Iv9vY/Ufa166beC4uPf1MGHiuLifzXHQeZrUMJjUnL2h8qN41pDRNt1/DBCsfACkuBru4SSC5mJUa3r96VNh9tKgZcEIQb/DkVcdX1K/GGemLkoWeTDT2/66J+CQAayaVYLqxfpAREA5gR8KJifMCS/gVTnNJC7PwGqyQBgKBsO7ykEGamYRYiluCctVKAfKSEwkhYc63tSfr+orSVBTBmpESapIN7mAJUDC7Ygwvy5VEggRcRYqQ6AFVLH8MZySspOSrb8UpiL186h6lqHM7TG3uxmunf2D09ad0k3b+ivADcDwkDKtcVcG7v/H+DJApdRGbW4FeedJD8h4FeZSUBbWbTvEeP9QlgSZCPdzRcIUbJUvwQGGUVsg9DosFkeUi2ihUJLMzi0YyiUAOSvCepBi5ike5S+P6orWv9Ir2WIcSeGksmiYJM3ICRTJMP8yRXLGI0pBi6WgFc7D2vv4avKZNlr9d+Zo+Ac=);strokeWidth=1;fontSize=12;spacingLeft=41;spacingBottom=47;" parent="1" vertex="1">
          <mxGeometry x="738" y="79.75" width="42.78" height="52.96" as="geometry" />
        </mxCell>
        <mxCell id="R7P3c3xCqw33GA_JSuXN-37" value="" style="edgeStyle=orthogonalEdgeStyle;rounded=0;orthogonalLoop=1;jettySize=auto;html=1;strokeWidth=1;fontSize=12;elbow=vertical;startArrow=classic;startFill=1;" parent="1" source="R7P3c3xCqw33GA_JSuXN-31" edge="1">
          <mxGeometry relative="1" as="geometry">
            <mxPoint x="869" y="183" as="sourcePoint" />
            <mxPoint x="869" y="130.23000000000002" as="targetPoint" />
            <Array as="points">
              <mxPoint x="869" y="166" />
              <mxPoint x="869" y="166" />
            </Array>
          </mxGeometry>
        </mxCell>
        <mxCell id="R7P3c3xCqw33GA_JSuXN-31" value="&lt;span style=&quot;border-color: var(--border-color); color: rgb(51, 51, 51);&quot;&gt;Base de datos&lt;/span&gt;&lt;br style=&quot;border-color: var(--border-color); color: rgb(51, 51, 51);&quot;&gt;&lt;span style=&quot;border-color: var(--border-color); color: rgb(51, 51, 51);&quot;&gt;de configuración&lt;/span&gt;" style="sketch=0;pointerEvents=1;shadow=0;dashed=0;html=1;strokeColor=none;labelPosition=center;verticalLabelPosition=bottom;verticalAlign=top;align=center;fillColor=#515151;shape=stencil(1VpLb9swDP41OUaw9bSORdadhgJDDju7rtsac+zA8fr491PiOK3kpqE4Zm2BAo2phPxIkx8p2TOx2Nzn63LGk3yzLot+Jr7NOH/Iuyq/rp2Yu5X7QWgts2qQNPmqHISLsum7vHayi5tV1VQbd9VXbeMEy6rf6l3+/DH8yC21v8vH6qbfK6ya+7Kr+mH1cZAZxZTZSsTlLLlw8u2fWBRt0zh0TvHGW3m1vrVcNb2H7mrQvXZmVmVfdoM0GaRP+yu2d+rZW53x7zGWlhhLh3hGGvsFMRaYwlm6BFhKQ0sGZeoKYithWoRBFDhzoCCyhAfWRkFsfsC8s3aSIjj3lpgcsfxIloiFkxyrQbG4bbvyrmv/NDdvQlzn24qfLIzLq/ahPIbJcqbfDfiopK6ao0r0iZs26si7wn2o8+6unLvP89s6v/P0dXv1en/57F1uHsty/epHqRfr/Zee5vlTtZl3bT/Q5Jv3AQbXd1mmLIvL1f/itjTMgj2H3qjA84OJ54OA2PM08123b7vuV5fImAG7Li1TnwGzYByMWWkmEPfrxcZ423H33TJ5DjUGV38Tr8j0uPSmcItGTcZpvKLSA24QRd1uypPf8nuRPeT33lqqDiQbhToLJj8yPSlKz9QvqJ73o7gbE450ezclVHU97AHeUbD9UtHWbecuh/87gDMuiqK4Lq7fAxk5aQgd9A2dAvkMzMGc+xycQThYxvQNrVj6CTA7GBKOWQKp6LyYjYIjToHd2a8z41er4ypYlcF7vAX57Y9kJo3o8dZQ5xcKszIR+WUtsCecF7ObyCMwG2ruQWF+4UQIZmg+Y3qvi572rGWKfKpP/AiN1yfo2fVucIgcaOKxXvqYJQiyHQ9JIJAldZyFD1kAIcMTMUuoi0f5kBUIckztmIw6MWBRDihKRYwabgdB3L4SFuxRD4ITsDWDH6cYzcxHJEcA2TL4uOEijRk3XmyMeiR1Izx/XUjGaSEHKQYbwUVMXZBHGUWY8JnOVQRxIQsWJMZBcAp0RJwdyxOPoqjUiKHMDLqvjqBME1KmIWf6TFBHGja1BJBFBGVm5HsrFMun50gOzPis/KONDLqN8zuKFkFHwepJwmNEcppXIQWpY4Xh1/NI3RDetB+TYz5gZSO2lUaRT8bIOCsZMwBJ8pkNCzuN2DrRT8j/ADuK7uUngS1jYJPvrdGwTUyngsJG0b6ePmchDhL3QwTaZ7r7GlFFlvwYHgNZR5ySGvInzijIWQzkrxdlcC77NeGGGBFWIOa5tUmmJ5I0enAvuWg9shOxHvAefDIsCpweDNMJHzP4XQT0+TnodRelYt6fSM79PAiE2URh/oJx1px6mkRhFvDRBhzlsz2P3/108l7fTjq8MLwT/AU=);strokeWidth=1;fontSize=12;spacing=-2;spacingLeft=0;spacingBottom=0;" parent="1" vertex="1">
          <mxGeometry x="856" y="171" width="41.8" height="55" as="geometry" />
        </mxCell>
        <mxCell id="R7P3c3xCqw33GA_JSuXN-43" value="" style="group" parent="1" vertex="1" connectable="0">
          <mxGeometry x="992" y="74.23" width="78.5" height="34" as="geometry" />
        </mxCell>
        <mxCell id="R7P3c3xCqw33GA_JSuXN-32" value="Clientes de &lt;br&gt;visualización" style="sketch=0;pointerEvents=1;shadow=0;dashed=0;html=1;strokeColor=none;fillColor=#505050;labelPosition=center;verticalLabelPosition=bottom;verticalAlign=top;outlineConnect=0;align=center;shape=mxgraph.office.devices.laptop;strokeWidth=1;fontSize=12;spacingRight=0;spacingLeft=24;" parent="R7P3c3xCqw33GA_JSuXN-43" vertex="1">
          <mxGeometry width="58" height="34" as="geometry" />
        </mxCell>
        <mxCell id="R7P3c3xCqw33GA_JSuXN-33" value="" style="sketch=0;aspect=fixed;pointerEvents=1;shadow=0;dashed=0;html=1;strokeColor=none;labelPosition=center;verticalLabelPosition=bottom;verticalAlign=top;align=center;fillColor=#505050;shape=mxgraph.azure.mobile;strokeWidth=1;fontSize=12;" parent="R7P3c3xCqw33GA_JSuXN-43" vertex="1">
          <mxGeometry x="61" y="4.5" width="17.5" height="25" as="geometry" />
        </mxCell>
        <mxCell id="uNH9szOgE4-swG8XMWnX-39" value="&lt;span style=&quot;font-size: 12px;&quot;&gt;Broker MQTT&lt;/span&gt;" style="aspect=fixed;pointerEvents=1;shadow=0;dashed=0;html=1;strokeColor=#6c8ebf;labelPosition=center;verticalLabelPosition=middle;verticalAlign=bottom;align=center;fillColor=#dae8fc;shape=mxgraph.mscae.enterprise.internet;rounded=1;glass=0;labelBackgroundColor=none;strokeWidth=2;spacing=10;fontSize=12;" parent="1" vertex="1">
          <mxGeometry x="589" y="61.96" width="101.68" height="63.04" as="geometry" />
        </mxCell>
        <mxCell id="H1eg-GXUXW613Ig_QmVM-26" style="orthogonalLoop=1;jettySize=auto;html=1;entryX=0.995;entryY=0.695;entryDx=0;entryDy=0;endArrow=classic;endFill=1;strokeWidth=1;rounded=0;elbow=vertical;startArrow=classic;startFill=1;entryPerimeter=0;" parent="1" source="R7P3c3xCqw33GA_JSuXN-26" target="uNH9szOgE4-swG8XMWnX-39" edge="1">
          <mxGeometry relative="1" as="geometry">
            <mxPoint x="719.57032" y="108.22599999999998" as="sourcePoint" />
            <mxPoint x="668.6800000000001" y="108.49" as="targetPoint" />
          </mxGeometry>
        </mxCell>
        <mxCell id="H1eg-GXUXW613Ig_QmVM-29" value="" style="rounded=1;whiteSpace=wrap;html=1;strokeColor=#7EA6E0;strokeWidth=2;fontSize=18;fillColor=none;verticalAlign=middle;arcSize=9;fontStyle=0;dashed=1;labelBackgroundColor=none;glass=0;shadow=0;" parent="1" vertex="1">
          <mxGeometry x="982.5" y="54" width="96.5" height="95" as="geometry" />
        </mxCell>
      </root>
    </mxGraphModel>
  </diagram>
  <diagram id="ThHhc1WCRcOOhQcx-rOX" name="Detalle nodo">
    <mxGraphModel dx="2074" dy="1199" grid="0" gridSize="1" guides="1" tooltips="1" connect="1" arrows="1" fold="1" page="0" pageScale="1" pageWidth="850" pageHeight="1100" math="0" shadow="0">
      <root>
        <mxCell id="0" />
        <mxCell id="1" parent="0" />
        <mxCell id="pz0ztUWZGe0sq06lEIVN-1" value="&lt;span style=&quot;font-size: 20px;&quot;&gt;Sensores&lt;/span&gt;" style="rounded=1;whiteSpace=wrap;html=1;fontSize=20;strokeColor=#666666;strokeWidth=2;fillColor=none;verticalAlign=top;labelBackgroundColor=none;arcSize=6;fontStyle=1;horizontal=1;fontColor=#333333;" parent="1" vertex="1">
          <mxGeometry x="28" y="120" width="215" height="420" as="geometry" />
        </mxCell>
        <mxCell id="pz0ztUWZGe0sq06lEIVN-2" value="&lt;span style=&quot;font-size: 20px;&quot;&gt;Microcontrolador&lt;/span&gt;" style="rounded=1;whiteSpace=wrap;html=1;fontSize=20;fontColor=#333333;strokeColor=#666666;strokeWidth=2;fillColor=#f5f5f5;verticalAlign=top;labelBackgroundColor=none;arcSize=3;fontStyle=1;" parent="1" vertex="1">
          <mxGeometry x="312" y="120" width="433" height="391" as="geometry" />
        </mxCell>
        <mxCell id="pz0ztUWZGe0sq06lEIVN-3" value="&lt;div style=&quot;font-size: 18px;&quot;&gt;&lt;p style=&quot;margin: 0px; text-indent: 0px; direction: ltr; font-size: 18px;&quot;&gt;&lt;font style=&quot;font-size: 18px; direction: ltr; letter-spacing: 0px; line-height: 1; opacity: 1;&quot;&gt;Display LCD&lt;/font&gt;&lt;/p&gt;&lt;/div&gt;" style="rounded=1;whiteSpace=wrap;html=1;fontSize=18;strokeColor=#7EA6E0;strokeWidth=2;fillColor=none;labelBackgroundColor=none;fontStyle=0;glass=0;shadow=0;arcSize=9;" parent="1" vertex="1">
          <mxGeometry x="540.1598611111112" y="552.0839573732718" width="180" height="60" as="geometry" />
        </mxCell>
        <mxCell id="pz0ztUWZGe0sq06lEIVN-4" style="edgeStyle=orthogonalEdgeStyle;rounded=1;orthogonalLoop=1;jettySize=auto;html=1;fontSize=18;exitX=0.5;exitY=0;exitDx=0;exitDy=0;strokeWidth=2;entryX=0.263;entryY=1;entryDx=0;entryDy=0;entryPerimeter=0;endSize=7;" parent="1" source="pz0ztUWZGe0sq06lEIVN-5" target="pz0ztUWZGe0sq06lEIVN-2" edge="1">
          <mxGeometry relative="1" as="geometry">
            <mxPoint x="426.1680000000001" y="512.818" as="targetPoint" />
            <mxPoint x="426.1180092592592" y="562.0839573732718" as="sourcePoint" />
          </mxGeometry>
        </mxCell>
        <mxCell id="pz0ztUWZGe0sq06lEIVN-5" value="&lt;div style=&quot;font-size: 18px;&quot;&gt;&lt;p style=&quot;margin: 0px; text-indent: 0px; direction: ltr; font-size: 18px;&quot;&gt;&lt;font style=&quot;font-size: 18px; direction: ltr; letter-spacing: 0px; line-height: 1; opacity: 1;&quot;&gt;Fuente de alimentación&lt;/font&gt;&lt;/p&gt;&lt;/div&gt;" style="rounded=1;whiteSpace=wrap;html=1;fontSize=18;strokeColor=#FF9999;strokeWidth=2;fillColor=none;labelBackgroundColor=none;fontStyle=0;glass=0;shadow=0;arcSize=9;" parent="1" vertex="1">
          <mxGeometry x="336.1180092592593" y="552.0839573732718" width="180" height="60" as="geometry" />
        </mxCell>
        <mxCell id="pz0ztUWZGe0sq06lEIVN-6" style="edgeStyle=elbowEdgeStyle;orthogonalLoop=1;jettySize=auto;html=1;exitX=0.507;exitY=0.92;exitDx=0;exitDy=0;exitPerimeter=0;entryX=1;entryY=0.5;entryDx=0;entryDy=0;endArrow=none;endFill=0;strokeWidth=2;rounded=1;elbow=vertical;" parent="1" source="pz0ztUWZGe0sq06lEIVN-7" target="pz0ztUWZGe0sq06lEIVN-17" edge="1">
          <mxGeometry relative="1" as="geometry">
            <mxPoint x="871.5418055555556" y="170.5442914746544" as="sourcePoint" />
            <Array as="points">
              <mxPoint x="779" y="201" />
            </Array>
          </mxGeometry>
        </mxCell>
        <mxCell id="pz0ztUWZGe0sq06lEIVN-7" value="&lt;font style=&quot;font-size: 18px;&quot;&gt;Antena&lt;br style=&quot;font-size: 18px;&quot;&gt;&lt;/font&gt;" style="verticalLabelPosition=top;shadow=0;dashed=0;align=center;html=1;verticalAlign=bottom;shape=mxgraph.electrical.radio.aerial_-_antenna_2;fontFamily=Helvetica;fontSize=18;strokeWidth=2;rounded=1;horizontal=1;spacing=0;spacingTop=4;labelPosition=center;" parent="1" vertex="1">
          <mxGeometry x="760" y="121" width="32.08" height="53.46" as="geometry" />
        </mxCell>
        <mxCell id="pz0ztUWZGe0sq06lEIVN-8" value="&lt;span style=&quot;font-size: 18px;&quot;&gt;UART&lt;/span&gt;" style="rounded=1;whiteSpace=wrap;html=1;fontSize=18;fontColor=#333333;strokeColor=#666666;strokeWidth=2;fillColor=#FFFFFF;labelBackgroundColor=none;fontStyle=0;glass=0;shadow=0;arcSize=7;verticalAlign=middle;flipV=1;" parent="1" vertex="1">
          <mxGeometry x="336.1180092592593" y="279" width="180" height="85" as="geometry" />
        </mxCell>
        <mxCell id="pz0ztUWZGe0sq06lEIVN-9" value="&lt;span style=&quot;font-family: Helvetica; font-size: 18px; font-style: normal; font-variant-ligatures: normal; font-variant-caps: normal; letter-spacing: normal; orphans: 2; text-align: center; text-indent: 0px; text-transform: none; widows: 2; word-spacing: 0px; -webkit-text-stroke-width: 0px; text-decoration-thickness: initial; text-decoration-style: initial; text-decoration-color: initial; float: none; display: inline !important;&quot;&gt;Entradas/Salidas&lt;br style=&quot;font-size: 18px;&quot;&gt;discretas&lt;/span&gt;" style="rounded=1;whiteSpace=wrap;html=1;fontSize=18;fontColor=#333333;strokeColor=#666666;strokeWidth=2;fillColor=#FFFFFF;labelBackgroundColor=none;fontStyle=0;glass=0;shadow=0;arcSize=7;verticalAlign=middle;flipV=1;" parent="1" vertex="1">
          <mxGeometry x="336.1180092592593" y="399.14553571428564" width="180" height="85" as="geometry" />
        </mxCell>
        <mxCell id="pz0ztUWZGe0sq06lEIVN-10" value="&lt;font style=&quot;letter-spacing: 0px; direction: ltr; line-height: 14.4px; opacity: 1; font-size: 18px;&quot;&gt;Entradas&lt;br style=&quot;font-size: 18px;&quot;&gt;&lt;/font&gt;&lt;font style=&quot;letter-spacing: 0px; direction: ltr; line-height: 14.4px; opacity: 1; font-size: 18px;&quot;&gt;analógicas&lt;/font&gt;" style="rounded=1;whiteSpace=wrap;html=1;fontSize=18;fontColor=#333333;strokeColor=#666666;strokeWidth=2;fillColor=#FFFFFF;labelBackgroundColor=none;fontStyle=0;glass=0;shadow=0;arcSize=7;verticalAlign=middle;flipV=1;" parent="1" vertex="1">
          <mxGeometry x="336.1180092592593" y="158.64717741935488" width="180" height="85" as="geometry" />
        </mxCell>
        <mxCell id="pz0ztUWZGe0sq06lEIVN-11" style="vsdxID=1006;startArrow=none;endArrow=classic;startSize=5;endSize=7;strokeColor=#000000;spacingTop=0;spacingBottom=0;spacingLeft=0;spacingRight=0;verticalAlign=middle;html=1;labelBackgroundColor=#ffffff;exitX=1;exitY=0.5;exitDx=0;exitDy=0;exitPerimeter=0;entryX=0;entryY=0.75;entryDx=0;entryDy=0;fontFamily=Helvetica;rounded=1;strokeWidth=2;endFill=1;jumpSize=3;edgeStyle=elbowEdgeStyle;" parent="1" source="pz0ztUWZGe0sq06lEIVN-21" target="pz0ztUWZGe0sq06lEIVN-8" edge="1">
          <mxGeometry relative="1" as="geometry">
            <mxPoint x="-1" as="offset" />
            <mxPoint x="342.52120919676855" y="308.5524222350231" as="targetPoint" />
            <Array as="points">
              <mxPoint x="219" y="344" />
            </Array>
          </mxGeometry>
        </mxCell>
        <mxCell id="pz0ztUWZGe0sq06lEIVN-12" style="vsdxID=1005;startArrow=none;endArrow=classic;startSize=5;endSize=7;strokeColor=#000000;spacingTop=0;spacingBottom=0;spacingLeft=0;spacingRight=0;verticalAlign=middle;html=1;labelBackgroundColor=#ffffff;exitX=1;exitY=0.5;exitDx=0;exitDy=0;exitPerimeter=0;fontFamily=Helvetica;strokeWidth=2;endFill=1;jumpSize=3;rounded=1;anchorPointDirection=1;orthogonal=0;edgeStyle=orthogonalEdgeStyle;entryX=0;entryY=0.25;entryDx=0;entryDy=0;" parent="1" source="pz0ztUWZGe0sq06lEIVN-20" target="pz0ztUWZGe0sq06lEIVN-8" edge="1">
          <mxGeometry relative="1" as="geometry">
            <mxPoint x="-1" as="offset" />
            <mxPoint x="342.52120919676855" y="253.71204205069125" as="targetPoint" />
            <Array as="points">
              <mxPoint x="276" y="274" />
              <mxPoint x="276" y="300" />
            </Array>
          </mxGeometry>
        </mxCell>
        <mxCell id="pz0ztUWZGe0sq06lEIVN-13" style="vsdxID=1017;edgeStyle=none;startArrow=none;endArrow=classic;startSize=5;endSize=7;strokeColor=#000000;spacingTop=0;spacingBottom=0;spacingLeft=0;spacingRight=0;verticalAlign=middle;html=1;labelBackgroundColor=#ffffff;rounded=1;entryX=0;entryY=0.5;entryDx=0;entryDy=0;fontFamily=Helvetica;strokeWidth=2;endFill=1;jumpSize=3;" parent="1" source="pz0ztUWZGe0sq06lEIVN-23" target="pz0ztUWZGe0sq06lEIVN-10" edge="1">
          <mxGeometry relative="1" as="geometry">
            <mxPoint as="offset" />
            <Array as="points" />
            <mxPoint x="343.95467100751347" y="195.18355414746543" as="targetPoint" />
          </mxGeometry>
        </mxCell>
        <mxCell id="pz0ztUWZGe0sq06lEIVN-14" style="orthogonalLoop=1;jettySize=auto;html=1;entryX=0;entryY=0.25;entryDx=0;entryDy=0;jumpSize=3;endSize=7;strokeWidth=2;endArrow=classic;endFill=1;labelBackgroundColor=#ffffff;strokeColor=#000000;startArrow=none;startSize=5;spacingTop=0;spacingBottom=0;spacingLeft=0;spacingRight=0;rounded=1;exitX=1;exitY=0.5;exitDx=0;exitDy=0;" parent="1" source="pz0ztUWZGe0sq06lEIVN-22" target="pz0ztUWZGe0sq06lEIVN-9" edge="1">
          <mxGeometry relative="1" as="geometry">
            <mxPoint x="340.6003703703704" y="514.8673387096775" as="targetPoint" />
            <mxPoint x="283.7569731770629" y="419.97177419354847" as="sourcePoint" />
          </mxGeometry>
        </mxCell>
        <mxCell id="pz0ztUWZGe0sq06lEIVN-15" style="vsdxID=1019;edgeStyle=none;startArrow=none;endArrow=classic;startSize=5;endSize=7;strokeColor=#000000;spacingTop=0;spacingBottom=0;spacingLeft=0;spacingRight=0;verticalAlign=middle;html=1;labelBackgroundColor=#ffffff;rounded=1;entryX=0.5;entryY=0;entryDx=0;entryDy=0;entryPerimeter=0;fontFamily=Helvetica;strokeWidth=2;exitX=0.5;exitY=1;exitDx=0;exitDy=0;fontSize=18;" parent="1" source="pz0ztUWZGe0sq06lEIVN-18" target="pz0ztUWZGe0sq06lEIVN-3" edge="1">
          <mxGeometry relative="1" as="geometry">
            <mxPoint x="12" y="-1" as="offset" />
            <Array as="points" />
            <mxPoint x="641.4020833333338" y="554.1853110599077" as="sourcePoint" />
          </mxGeometry>
        </mxCell>
        <mxCell id="pz0ztUWZGe0sq06lEIVN-16" style="orthogonalLoop=1;jettySize=auto;html=1;jumpSize=3;endSize=7;strokeWidth=2;endArrow=classic;endFill=1;labelBackgroundColor=#ffffff;strokeColor=#000000;startArrow=none;startSize=5;spacingTop=0;spacingBottom=0;spacingLeft=0;spacingRight=0;exitX=1;exitY=0.5;exitDx=0;exitDy=0;rounded=1;edgeStyle=orthogonalEdgeStyle;entryX=0;entryY=0.5;entryDx=0;entryDy=0;" parent="1" source="pz0ztUWZGe0sq06lEIVN-24" target="pz0ztUWZGe0sq06lEIVN-9" edge="1">
          <mxGeometry relative="1" as="geometry">
            <Array as="points">
              <mxPoint x="269" y="495" />
              <mxPoint x="269" y="442" />
              <mxPoint x="336" y="442" />
            </Array>
            <mxPoint x="224.59365740740725" y="520.6626440092168" as="sourcePoint" />
            <mxPoint x="280" y="454" as="targetPoint" />
          </mxGeometry>
        </mxCell>
        <mxCell id="pz0ztUWZGe0sq06lEIVN-17" value="&lt;span style=&quot;font-size: 18px;&quot;&gt;Wi-Fi&lt;/span&gt;" style="rounded=1;whiteSpace=wrap;html=1;fontSize=18;fontColor=#333333;strokeColor=#666666;strokeWidth=2;fillColor=#FFFFFF;labelBackgroundColor=none;fontStyle=0;glass=0;shadow=0;arcSize=7;verticalAlign=middle;flipV=1;" parent="1" vertex="1">
          <mxGeometry x="540.1598611111112" y="158.64717741935488" width="180" height="85" as="geometry" />
        </mxCell>
        <mxCell id="pz0ztUWZGe0sq06lEIVN-18" value="&lt;span style=&quot;font-size: 18px;&quot;&gt;I&lt;/span&gt;&lt;sup style=&quot;font-size: 18px;&quot;&gt;2&lt;/sup&gt;&lt;span style=&quot;font-size: 18px;&quot;&gt;C&lt;/span&gt;" style="rounded=1;whiteSpace=wrap;html=1;fontSize=18;fontColor=#333333;strokeColor=#666666;strokeWidth=2;fillColor=#FFFFFF;labelBackgroundColor=none;fontStyle=0;glass=0;shadow=0;arcSize=7;verticalAlign=middle;flipV=1;" parent="1" vertex="1">
          <mxGeometry x="540.1598611111112" y="399.14553571428564" width="180" height="85" as="geometry" />
        </mxCell>
        <mxCell id="pz0ztUWZGe0sq06lEIVN-19" value="&lt;span style=&quot;font-size: 18px;&quot;&gt;RTC&lt;/span&gt;" style="rounded=1;whiteSpace=wrap;html=1;fontSize=18;fontColor=#333333;strokeColor=#666666;strokeWidth=2;fillColor=#FFFFFF;labelBackgroundColor=none;fontStyle=0;glass=0;shadow=0;arcSize=7;verticalAlign=middle;flipV=1;" parent="1" vertex="1">
          <mxGeometry x="540.1598611111112" y="279" width="180" height="85" as="geometry" />
        </mxCell>
        <mxCell id="pz0ztUWZGe0sq06lEIVN-20" value="&lt;div style=&quot;font-size: 18px;&quot;&gt;&lt;p style=&quot;margin: 0px; text-indent: 0px; direction: ltr; font-size: 18px;&quot;&gt;&lt;font style=&quot;font-size: 18px; direction: ltr; letter-spacing: 0px; line-height: 80%; opacity: 1;&quot;&gt;Sensor de CO&lt;/font&gt;&lt;font style=&quot;font-size: 18px; direction: ltr; letter-spacing: 0px; line-height: 80%; opacity: 1;&quot;&gt;&lt;sub style=&quot;font-size: 18px;&quot;&gt;2&lt;/sub&gt;&lt;/font&gt;&lt;/p&gt;&lt;p style=&quot;margin: 0px; text-indent: 0px; direction: ltr; font-size: 18px;&quot;&gt;&lt;font style=&quot;font-size: 18px; direction: ltr; letter-spacing: 0px; line-height: 80%; opacity: 1;&quot;&gt;(entrada de aire)&lt;/font&gt;&lt;font style=&quot;font-size: 18px; direction: ltr; letter-spacing: 0px; line-height: 80%; opacity: 1;&quot;&gt;&lt;br style=&quot;font-size: 18px;&quot;&gt;&lt;/font&gt;&lt;/p&gt;&lt;/div&gt;" style="rounded=1;whiteSpace=wrap;html=1;fontSize=18;fontColor=default;strokeColor=#5DAD85;strokeWidth=2;fillColor=#FFFFFF;labelBackgroundColor=none;fontStyle=0;glass=0;shadow=0;imageHeight=24;arcSize=9;flipV=0;flipH=0;" parent="1" vertex="1">
          <mxGeometry x="45.802312593408324" y="244.22177419354844" width="180" height="60" as="geometry" />
        </mxCell>
        <mxCell id="pz0ztUWZGe0sq06lEIVN-21" value="&lt;div style=&quot;font-size: 18px;&quot;&gt;&lt;p style=&quot;margin: 0px; text-indent: 0px; direction: ltr; font-size: 18px;&quot;&gt;&lt;font style=&quot;font-size: 18px; direction: ltr; letter-spacing: 0px; line-height: 80%; opacity: 1;&quot;&gt;Sensor de CO&lt;/font&gt;&lt;font style=&quot;font-size: 18px; direction: ltr; letter-spacing: 0px; line-height: 80%; opacity: 1;&quot;&gt;&lt;sub style=&quot;font-size: 18px;&quot;&gt;2&lt;/sub&gt;&lt;/font&gt;&lt;/p&gt;&lt;p style=&quot;margin: 0px; text-indent: 0px; direction: ltr; font-size: 18px;&quot;&gt;&lt;font style=&quot;font-size: 18px; direction: ltr; letter-spacing: 0px; line-height: 80%; opacity: 1;&quot;&gt;(salida de aire)&lt;/font&gt;&lt;font style=&quot;font-size: 18px; direction: ltr; letter-spacing: 0px; line-height: 80%; opacity: 1;&quot;&gt;&lt;br style=&quot;font-size: 18px;&quot;&gt;&lt;/font&gt;&lt;/p&gt;&lt;/div&gt;" style="rounded=1;whiteSpace=wrap;html=1;fontSize=18;fontColor=default;strokeColor=#5DAD85;strokeWidth=2;fillColor=#FFFFFF;labelBackgroundColor=none;fontStyle=0;glass=0;shadow=0;arcSize=9;flipV=0;flipH=0;" parent="1" vertex="1">
          <mxGeometry x="45.802312593408324" y="317.3286290322581" width="180" height="60" as="geometry" />
        </mxCell>
        <mxCell id="pz0ztUWZGe0sq06lEIVN-22" value="&lt;div style=&quot;font-size: 18px;&quot;&gt;&lt;p style=&quot;margin: 0px; text-indent: 0px; direction: ltr; font-size: 18px;&quot;&gt;&lt;font style=&quot;font-size: 18px; direction: ltr; letter-spacing: 0px; line-height: 80%; opacity: 1;&quot;&gt;Sensor de temperatura&lt;/font&gt;&lt;/p&gt;&lt;/div&gt;" style="rounded=1;whiteSpace=wrap;html=1;fontSize=18;fontColor=default;strokeColor=#5DAD85;strokeWidth=2;fillColor=#FFFFFF;labelBackgroundColor=none;fontStyle=0;glass=0;shadow=0;arcSize=9;flipV=0;flipH=0;" parent="1" vertex="1">
          <mxGeometry x="45.802312593408324" y="390.43548387096774" width="180" height="60" as="geometry" />
        </mxCell>
        <mxCell id="pz0ztUWZGe0sq06lEIVN-23" value="&lt;div style=&quot;font-size: 18px;&quot;&gt;&lt;p style=&quot;margin: 0px; text-indent: 0px; direction: ltr; font-size: 18px;&quot;&gt;&lt;font style=&quot;font-size: 18px; direction: ltr; letter-spacing: 0px; line-height: 80%; opacity: 1;&quot;&gt;Sensor de pH&lt;/font&gt;&lt;font style=&quot;font-size: 18px; direction: ltr; letter-spacing: 0px; line-height: 80%; opacity: 1;&quot;&gt;&lt;br style=&quot;font-size: 18px;&quot;&gt;&lt;/font&gt;&lt;/p&gt;&lt;/div&gt;" style="rounded=1;whiteSpace=wrap;html=1;fontSize=18;fontColor=default;strokeColor=#5DAD85;strokeWidth=2;fillColor=#FFFFFF;labelBackgroundColor=none;fontStyle=0;glass=0;shadow=0;arcSize=9;flipV=0;flipH=0;" parent="1" vertex="1">
          <mxGeometry x="45.802312593408324" y="171.11491935483872" width="180" height="60" as="geometry" />
        </mxCell>
        <mxCell id="pz0ztUWZGe0sq06lEIVN-24" value="&lt;div style=&quot;font-size: 18px;&quot;&gt;&lt;p style=&quot;margin: 0px; text-indent: 0px; direction: ltr; font-size: 18px;&quot;&gt;&lt;font style=&quot;font-size: 18px; direction: ltr; letter-spacing: 0px; line-height: 80%; opacity: 1;&quot;&gt;Sensor de luz&lt;/font&gt;&lt;/p&gt;&lt;/div&gt;" style="rounded=1;whiteSpace=wrap;html=1;fontSize=18;fontColor=default;strokeColor=#5DAD85;strokeWidth=2;fillColor=#FFFFFF;labelBackgroundColor=none;fontStyle=0;glass=0;shadow=0;arcSize=9;flipV=0;flipH=0;" parent="1" vertex="1">
          <mxGeometry x="45.802312593408324" y="464.975806451613" width="180" height="60" as="geometry" />
        </mxCell>
        <mxCell id="pz0ztUWZGe0sq06lEIVN-25" value="&lt;div style=&quot;font-size: 18px;&quot;&gt;&lt;p style=&quot;margin: 0px; text-indent: 0px; direction: ltr; font-size: 18px;&quot;&gt;&lt;font style=&quot;font-size: 18px; direction: ltr; letter-spacing: 0px; line-height: 80%; opacity: 1;&quot;&gt;Módulo de r&lt;/font&gt;&lt;span style=&quot;letter-spacing: 0px; background-color: initial; font-size: 18px;&quot;&gt;elés&lt;/span&gt;&lt;/p&gt;&lt;/div&gt;" style="rounded=1;whiteSpace=wrap;html=1;fontSize=18;strokeColor=#7EA6E0;strokeWidth=2;fillColor=none;labelBackgroundColor=none;fontStyle=0;glass=0;shadow=0;arcSize=9;" parent="1" vertex="1">
          <mxGeometry x="45.31" y="552.0839573732718" width="180" height="60" as="geometry" />
        </mxCell>
        <mxCell id="pz0ztUWZGe0sq06lEIVN-26" style="edgeStyle=orthogonalEdgeStyle;rounded=1;orthogonalLoop=1;jettySize=auto;html=1;exitX=0;exitY=0.75;exitDx=0;exitDy=0;entryX=1;entryY=0.5;entryDx=0;entryDy=0;labelBackgroundColor=#ffffff;strokeColor=#000000;endSize=7;strokeWidth=2;endFill=1;startArrow=none;startSize=5;spacingTop=0;spacingBottom=0;spacingLeft=0;spacingRight=0;" parent="1" source="pz0ztUWZGe0sq06lEIVN-9" target="pz0ztUWZGe0sq06lEIVN-25" edge="1">
          <mxGeometry relative="1" as="geometry">
            <Array as="points">
              <mxPoint x="291" y="463" />
              <mxPoint x="291" y="582" />
            </Array>
          </mxGeometry>
        </mxCell>
      </root>
    </mxGraphModel>
  </diagram>
</mxfile>
